<mxfile host="app.diagrams.net" agent="Mozilla/5.0 (Windows NT 10.0; Win64; x64) AppleWebKit/537.36 (KHTML, like Gecko) Chrome/131.0.0.0 Safari/537.36" version="24.8.6">
  <diagram name="Strona-1" id="KJO04tJcCubzBTvvAsfJ">
    <mxGraphModel dx="1070" dy="718" grid="0" gridSize="10" guides="1" tooltips="1" connect="1" arrows="1" fold="1" page="0" pageScale="1" pageWidth="827" pageHeight="1169" math="0" shadow="0">
      <root>
        <mxCell id="0" />
        <mxCell id="1" parent="0" />
        <mxCell id="iT1CK04Iw65EDKjZBUkY-1" value="Computer File" style="swimlane;fontStyle=1;align=center;verticalAlign=top;childLayout=stackLayout;horizontal=1;startSize=26;horizontalStack=0;resizeParent=1;resizeParentMax=0;resizeLast=0;collapsible=1;marginBottom=0;whiteSpace=wrap;html=1;" parent="1" vertex="1">
          <mxGeometry x="174" y="139" width="231" height="216" as="geometry" />
        </mxCell>
        <mxCell id="iT1CK04Iw65EDKjZBUkY-2" value="+ name: String&lt;div&gt;+ size: int&lt;/div&gt;&lt;div&gt;+ type: String&lt;/div&gt;&lt;div&gt;+ usage: String&lt;/div&gt;&lt;div&gt;+ location: String&lt;/div&gt;" style="text;strokeColor=none;fillColor=none;align=left;verticalAlign=top;spacingLeft=4;spacingRight=4;overflow=hidden;rotatable=0;points=[[0,0.5],[1,0.5]];portConstraint=eastwest;whiteSpace=wrap;html=1;" parent="iT1CK04Iw65EDKjZBUkY-1" vertex="1">
          <mxGeometry y="26" width="231" height="76" as="geometry" />
        </mxCell>
        <mxCell id="iT1CK04Iw65EDKjZBUkY-3" value="" style="line;strokeWidth=1;fillColor=none;align=left;verticalAlign=middle;spacingTop=-1;spacingLeft=3;spacingRight=3;rotatable=0;labelPosition=right;points=[];portConstraint=eastwest;strokeColor=inherit;" parent="iT1CK04Iw65EDKjZBUkY-1" vertex="1">
          <mxGeometry y="102" width="231" height="8" as="geometry" />
        </mxCell>
        <mxCell id="iT1CK04Iw65EDKjZBUkY-4" value="+ delete(): void&lt;div&gt;+ open(): void&lt;/div&gt;&lt;div&gt;+ close(): void&lt;/div&gt;&lt;div&gt;+ change_type(String type): void&lt;/div&gt;&lt;div&gt;+ is_empty(): boolean&lt;/div&gt;" style="text;strokeColor=none;fillColor=none;align=left;verticalAlign=top;spacingLeft=4;spacingRight=4;overflow=hidden;rotatable=0;points=[[0,0.5],[1,0.5]];portConstraint=eastwest;whiteSpace=wrap;html=1;" parent="iT1CK04Iw65EDKjZBUkY-1" vertex="1">
          <mxGeometry y="110" width="231" height="106" as="geometry" />
        </mxCell>
        <mxCell id="XlM_z6nBkSokfEEa2jha-1" value="Bank Account" style="swimlane;fontStyle=1;align=center;verticalAlign=top;childLayout=stackLayout;horizontal=1;startSize=26;horizontalStack=0;resizeParent=1;resizeParentMax=0;resizeLast=0;collapsible=1;marginBottom=0;whiteSpace=wrap;html=1;" vertex="1" parent="1">
          <mxGeometry x="-33" y="-39" width="160" height="288" as="geometry" />
        </mxCell>
        <mxCell id="XlM_z6nBkSokfEEa2jha-2" value="+number: int&lt;div&gt;+name: String&lt;/div&gt;&lt;div&gt;+ valid: boolean&lt;/div&gt;&lt;div&gt;+balance: float&lt;/div&gt;&lt;div&gt;+ age: int&lt;/div&gt;" style="text;strokeColor=none;fillColor=none;align=left;verticalAlign=top;spacingLeft=4;spacingRight=4;overflow=hidden;rotatable=0;points=[[0,0.5],[1,0.5]];portConstraint=eastwest;whiteSpace=wrap;html=1;" vertex="1" parent="XlM_z6nBkSokfEEa2jha-1">
          <mxGeometry y="26" width="160" height="104" as="geometry" />
        </mxCell>
        <mxCell id="XlM_z6nBkSokfEEa2jha-3" value="" style="line;strokeWidth=1;fillColor=none;align=left;verticalAlign=middle;spacingTop=-1;spacingLeft=3;spacingRight=3;rotatable=0;labelPosition=right;points=[];portConstraint=eastwest;strokeColor=inherit;" vertex="1" parent="XlM_z6nBkSokfEEa2jha-1">
          <mxGeometry y="130" width="160" height="8" as="geometry" />
        </mxCell>
        <mxCell id="XlM_z6nBkSokfEEa2jha-4" value="+ add_money(float money): void&lt;div&gt;+withdraw(float money: void&lt;/div&gt;&lt;div&gt;+ check_balance(): float&amp;nbsp;&lt;/div&gt;&lt;div&gt;+ check_name(): String&lt;/div&gt;&lt;div&gt;+check_age(): int&lt;/div&gt;" style="text;strokeColor=none;fillColor=none;align=left;verticalAlign=top;spacingLeft=4;spacingRight=4;overflow=hidden;rotatable=0;points=[[0,0.5],[1,0.5]];portConstraint=eastwest;whiteSpace=wrap;html=1;" vertex="1" parent="XlM_z6nBkSokfEEa2jha-1">
          <mxGeometry y="138" width="160" height="150" as="geometry" />
        </mxCell>
        <mxCell id="XlM_z6nBkSokfEEa2jha-5" value="Giraffe" style="swimlane;fontStyle=1;align=center;verticalAlign=top;childLayout=stackLayout;horizontal=1;startSize=26;horizontalStack=0;resizeParent=1;resizeParentMax=0;resizeLast=0;collapsible=1;marginBottom=0;whiteSpace=wrap;html=1;" vertex="1" parent="1">
          <mxGeometry x="-33" y="359" width="345" height="338" as="geometry" />
        </mxCell>
        <mxCell id="XlM_z6nBkSokfEEa2jha-6" value="-age: int&lt;div&gt;- height: float&lt;/div&gt;&lt;div&gt;-weight: int&lt;/div&gt;&lt;div&gt;-name: String&lt;/div&gt;&lt;div&gt;-&lt;span style=&quot;background-color: initial;&quot;&gt;id: int&lt;/span&gt;&lt;/div&gt;" style="text;strokeColor=none;fillColor=none;align=left;verticalAlign=top;spacingLeft=4;spacingRight=4;overflow=hidden;rotatable=0;points=[[0,0.5],[1,0.5]];portConstraint=eastwest;whiteSpace=wrap;html=1;" vertex="1" parent="XlM_z6nBkSokfEEa2jha-5">
          <mxGeometry y="26" width="345" height="106" as="geometry" />
        </mxCell>
        <mxCell id="XlM_z6nBkSokfEEa2jha-7" value="" style="line;strokeWidth=1;fillColor=none;align=left;verticalAlign=middle;spacingTop=-1;spacingLeft=3;spacingRight=3;rotatable=0;labelPosition=right;points=[];portConstraint=eastwest;strokeColor=inherit;" vertex="1" parent="XlM_z6nBkSokfEEa2jha-5">
          <mxGeometry y="132" width="345" height="8" as="geometry" />
        </mxCell>
        <mxCell id="XlM_z6nBkSokfEEa2jha-8" value="+ jump(): void&lt;div&gt;+ is_obese(int weight): boolean&lt;/div&gt;&lt;div&gt;+ check_age(): int&lt;/div&gt;&lt;div&gt;+check_name(): String&lt;/div&gt;&lt;div&gt;+too_short(float hight): boolean&lt;/div&gt;" style="text;strokeColor=none;fillColor=none;align=left;verticalAlign=top;spacingLeft=4;spacingRight=4;overflow=hidden;rotatable=0;points=[[0,0.5],[1,0.5]];portConstraint=eastwest;whiteSpace=wrap;html=1;" vertex="1" parent="XlM_z6nBkSokfEEa2jha-5">
          <mxGeometry y="140" width="345" height="198" as="geometry" />
        </mxCell>
      </root>
    </mxGraphModel>
  </diagram>
</mxfile>
